<svg width="1200" height="675" viewBox="0 0 1200 675" xmlns="http://www.w3.org/2000/svg" role="img" aria-labelledby="title desc">
  <title id="title">Integral Accumulation Thumbnail</title>
  <desc id="desc">A curve with shaded rectangles representing numerical integration.</desc>

  <defs>
    <linearGradient id="bg" x1="0" y1="0" x2="1" y2="1">
      <stop offset="0%" stop-color="#f8fafc" />
      <stop offset="100%" stop-color="#e2e8f0" />
    </linearGradient>
    <linearGradient id="bars" x1="0" y1="0" x2="0" y2="1">
      <stop offset="0%" stop-color="#a5b4fc" />
      <stop offset="100%" stop-color="#6366f1" />
    </linearGradient>
  </defs>

  <rect x="0" y="0" width="1200" height="675" fill="url(#bg)" />

  <text x="600" y="94" text-anchor="middle" font-family="Arial, sans-serif" font-size="56" font-weight="700" fill="#0f172a">
    Integral Accumulation
  </text>
  <text x="600" y="138" text-anchor="middle" font-family="Arial, sans-serif" font-size="26" fill="#334155">
    Riemann Sums and Trapezoidal Rule
  </text>

  <line x1="140" y1="515" x2="1060" y2="515" stroke="#64748b" stroke-width="3" />
  <line x1="200" y1="160" x2="200" y2="560" stroke="#64748b" stroke-width="3" />

  <g opacity="0.9">
    <rect x="260" y="430" width="62" height="85" fill="url(#bars)" stroke="#4f46e5" stroke-width="2" />
    <rect x="322" y="390" width="62" height="125" fill="url(#bars)" stroke="#4f46e5" stroke-width="2" />
    <rect x="384" y="355" width="62" height="160" fill="url(#bars)" stroke="#4f46e5" stroke-width="2" />
    <rect x="446" y="320" width="62" height="195" fill="url(#bars)" stroke="#4f46e5" stroke-width="2" />
    <rect x="508" y="290" width="62" height="225" fill="url(#bars)" stroke="#4f46e5" stroke-width="2" />
    <rect x="570" y="265" width="62" height="250" fill="url(#bars)" stroke="#4f46e5" stroke-width="2" />
    <rect x="632" y="250" width="62" height="265" fill="url(#bars)" stroke="#4f46e5" stroke-width="2" />
    <rect x="694" y="242" width="62" height="273" fill="url(#bars)" stroke="#4f46e5" stroke-width="2" />
    <rect x="756" y="252" width="62" height="263" fill="url(#bars)" stroke="#4f46e5" stroke-width="2" />
    <rect x="818" y="278" width="62" height="237" fill="url(#bars)" stroke="#4f46e5" stroke-width="2" />
  </g>

  <path
    d="M240 470 C310 420, 360 380, 430 340 C500 300, 560 265, 640 245 C720 225, 780 235, 860 280 C920 315, 970 370, 1020 455"
    fill="none"
    stroke="#0f172a"
    stroke-width="8"
    stroke-linecap="round"
  />

  <text x="910" y="585" font-family="Arial, sans-serif" font-size="28" font-weight="700" fill="#1e293b">
    ∫ f(x) dx
  </text>
</svg>
