<svg width="1200" height="675" viewBox="0 0 1200 675" xmlns="http://www.w3.org/2000/svg" role="img" aria-labelledby="title desc">
  <title id="title">Projectile Motion Lab Thumbnail</title>
  <desc id="desc">Parabolic trajectories with launch vectors and comparison arcs.</desc>

  <defs>
    <linearGradient id="bg" x1="0" y1="0" x2="1" y2="1">
      <stop offset="0%" stop-color="#eef2ff" />
      <stop offset="100%" stop-color="#dbeafe" />
    </linearGradient>
  </defs>

  <rect x="0" y="0" width="1200" height="675" fill="url(#bg)" />

  <text x="600" y="96" text-anchor="middle" font-family="Arial, sans-serif" font-size="56" font-weight="700" fill="#0f172a">
    Projectile Motion Lab
  </text>
  <text x="600" y="140" text-anchor="middle" font-family="Arial, sans-serif" font-size="26" fill="#334155">
    Trajectory, Drag, Wind, and Gravity
  </text>

  <line x1="120" y1="520" x2="1080" y2="520" stroke="#334155" stroke-width="4" />

  <path
    d="M170 520 C280 430, 360 330, 520 270 C690 205, 840 250, 980 410"
    fill="none"
    stroke="#1d4ed8"
    stroke-width="9"
    stroke-linecap="round"
  />

  <path
    d="M170 520 C265 455, 350 390, 485 350 C640 305, 780 335, 900 420"
    fill="none"
    stroke="#64748b"
    stroke-width="7"
    stroke-dasharray="16 12"
    stroke-linecap="round"
  />

  <circle cx="170" cy="520" r="10" fill="#0f172a" />
  <line x1="170" y1="520" x2="260" y2="432" stroke="#0f172a" stroke-width="5" />
  <polygon points="260,432 238,438 244,416" fill="#0f172a" />

  <text x="275" y="430" font-family="Arial, sans-serif" font-size="24" font-weight="700" fill="#0f172a">
    v₀
  </text>

  <text x="855" y="555" font-family="Arial, sans-serif" font-size="24" font-weight="700" fill="#1e293b">
    Range
  </text>
  <text x="962" y="245" font-family="Arial, sans-serif" font-size="24" font-weight="700" fill="#1d4ed8">
    Drag On
  </text>
  <text x="870" y="385" font-family="Arial, sans-serif" font-size="24" font-weight="700" fill="#475569">
    No Drag
  </text>
</svg>
